<svg viewBox="0 0 512 512" xmlns="http://www.w3.org/2000/svg" xmlns:xlink="http://www.w3.org/1999/xlink"><style>:root>svg{display:none}:root>svg:target{display:block}</style><svg fill="none" viewBox="0 0 28 29" id="linux"><path d="M22.8 11.8a6.3 6.3 0 01-2.4-6.1v-1C20.5 2 18 0 15.2 0c-3.2 0-5.8 2.1-5.8 4.9 0 .4 0 .8.2 1.2.6 2.2 0 4.6-1.8 6.2-1.8 1.7-3 4-3 6.5 0 5.7 2.6 8.4 6.2 9.3.8-.3 2-.6 3.4-.6 1.3 0 2.4.2 3.3.5 4.5-.8 6.6-2.7 8-7 1.3-3.6-.6-7.5-2.8-9.2z" fill="#333"/><path d="M22.8 11.8a6.3 6.3 0 01-2.4-6.1v-1C20.5 2 18 0 15.2 0h-.8v27.5c1.5 0 2.8.3 3.7.7 4.2-.6 6.2-3 7.7-7.3 1.2-3.5-.7-7.4-2.9-9.1z" fill="#000"/><path d="M7 20c0-3.8 3.5-12.4 7.7-12.4s7.6 8.6 7.6 12.3c0 3.7-3.4 6.7-7.6 6.7-4.2 0-7.6-3-7.6-6.7z" fill="#fff"/><path d="M14.7 7.6h-.4v19h.4c4.2 0 7.6-3 7.6-6.7S19 7.6 14.7 7.6z" fill="#C0C2C1"/><path d="M11.9 7.2c.7 0 1.3-.7 1.3-1.5s-.6-1.5-1.3-1.5c-.7 0-1.3.7-1.3 1.5s.6 1.5 1.3 1.5z" fill="#E6E6E6"/><path d="M11.9 7c.3 0 .6-.4.6-1 0-.5-.3-1-.6-1s-.6.5-.6 1c0 .6.3 1 .6 1z" fill="#000100"/><path d="M16.4 7.2c.7 0 1.2-.7 1.2-1.5s-.5-1.5-1.2-1.5-1.3.7-1.3 1.5.6 1.5 1.3 1.5z" fill="#E6E6E6"/><path d="M16.4 7c.3 0 .6-.4.6-1 0-.5-.3-1-.6-1-.4 0-.7.5-.7 1 0 .6.3 1 .7 1z" fill="#000100"/><path d="M18 8.2c.5.8-2.7 2.2-3.8 2.2-1.3 0-4.1-1.7-3.8-2.2.8-.8 2.4-2.2 3.7-2.2.9 0 3.7 1.7 4 2.2z" fill="#FE9A0F"/><path d="M18 8.2c-.2-.5-2.6-2-3.7-2.2v4.4c1.1 0 4.2-1.4 3.7-2.2z" fill="#E2810C"/><path d="M22.8 20.2c.6.9 1.4 1.8 2.4 2 .8.1 1.4.7 1.5 1.4v.3c.2.6.5 1.2 1 1.7.6.7.1 1.7-1 1.9l-7.9 1.3c-1.7.3-3-1.3-2.1-2.7l4.4-6c.4-.6 1.3-.5 1.7 0z" fill="#DD7F10"/><path d="M14.2 10c-1.1 0-2.3-.5-3.4-1.4l.4-.4c1.1 1 2.3 1.4 3.3 1.3A3.7 3.7 0 0017 8.2l.5.3a4.3 4.3 0 01-3.2 1.5z" fill="#AE4E32"/><path d="M14.5 9.5h-.2v.5h.3a4.3 4.3 0 002.8-1.5l-.5-.3s-.9 1.2-2.4 1.3z" fill="#9E402B"/><path d="M23.9 23.5c1.4 0 2.5-1 2.5-2.3 0-1.2-1.1-2.2-2.5-2.2s-2.6 1-2.6 2.2c0 1.3 1.2 2.3 2.6 2.3z" fill="#000"/><path d="M6.6 18.8s2.7 2.9 4.7 3.6c2 .6-1 2.5-3.6 1-2.6-1.4-1.1-4.6-1.1-4.6z" fill="#333"/><path d="M5.1 20.2c-.5.9-1.4 1.8-2.4 2-.8.1-1.4.7-1.5 1.4a3.4 3.4 0 01-.9 2c-.6.7-.2 1.7.8 1.9l8 1.3c1.8.3 3-1.3 2.2-2.7l-4.5-6c-.4-.6-1.3-.5-1.7 0z" fill="#FE9B0E"/></svg><svg viewBox="0 0 512 512" id="play-button"><path d="M437 75C388.7 26.6 324.4 0 256 0S123.3 26.6 75 75C26.6 123.3 0 187.6 0 256s26.6 132.7 75 181c48.3 48.4 112.6 75 181 75s132.7-26.6 181-75c48.4-48.3 75-112.6 75-181s-26.6-132.7-75-181zM256 482C131.4 482 30 380.6 30 256S131.4 30 256 30s226 101.4 226 226-101.4 226-226 226z"/><path d="M374.8 243.8l-180-130A15 15 0 00171 126v260a15 15 0 0023.8 12.2l180-130a15 15 0 000-24.4zM201 356.7V155.3L340.4 256z"/></svg></svg>